solid OpenSCAD_Model
  facet normal 0 -1 0
    outer loop
      vertex -8.82812 -13.125 1
      vertex -8.82812 -13.125 0
      vertex -8.00219 -13.125 0
    endloop
  endfacet
  facet normal 0 -1 0
    outer loop
      vertex -8.00219 -13.125 1
      vertex -8.82812 -13.125 1
      vertex -8.00219 -13.125 0
    endloop
  endfacet
  facet normal 0 0 -1
    outer loop
      vertex -8.82812 -13.125 0
      vertex -8.82812 -5.54906 0
      vertex -8.00219 -13.125 0
    endloop
  endfacet
  facet normal 0 0 -1
    outer loop
      vertex -8.00219 -6.44344 0
      vertex -8.82812 -5.54906 0
      vertex -6.47406 -5.54906 0
    endloop
  endfacet
  facet normal 0 0 -1
    outer loop
      vertex -6.40656 -6.44344 0
      vertex -6.47406 -5.54906 0
      vertex -5.52531 -5.62125 0
    endloop
  endfacet
  facet normal 0 0 -1
    outer loop
      vertex -5.63594 -6.51 0
      vertex -5.52531 -5.62125 0
      vertex -4.75469 -5.97562 0
    endloop
  endfacet
  facet normal 0 0 -1
    outer loop
      vertex -5.11469 -6.95719 0
      vertex -4.75469 -5.97562 0
      vertex -4.255 -6.70687 0
    endloop
  endfacet
  facet normal 0 0 -1
    outer loop
      vertex -5.2525 -8.78906 0
      vertex -4.255 -6.70687 0
      vertex -4.06562 -7.74 0
    endloop
  endfacet
  facet normal 0 0 -1
    outer loop
      vertex -8.00219 -10.0444 0
      vertex -6.38875 -9.15094 0
      vertex -6.40187 -10.0444 0
    endloop
  endfacet
  facet normal 0 0 -1
    outer loop
      vertex -8.00219 -13.125 0
      vertex -8.82812 -5.54906 0
      vertex -8.00219 -10.0444 0
    endloop
  endfacet
  facet normal 0 0 -1
    outer loop
      vertex -8.00219 -6.44344 0
      vertex -6.47406 -5.54906 0
      vertex -6.40656 -6.44344 0
    endloop
  endfacet
  facet normal 0 0 -1
    outer loop
      vertex -8.00219 -10.0444 0
      vertex -8.82812 -5.54906 0
      vertex -8.00219 -9.15094 0
    endloop
  endfacet
  facet normal 0 0 -1
    outer loop
      vertex -6.38875 -9.15094 0
      vertex -8.00219 -10.0444 0
      vertex -8.00219 -9.15094 0
    endloop
  endfacet
  facet normal 0 0 -1
    outer loop
      vertex -8.82812 -5.54906 0
      vertex -8.00219 -6.44344 0
      vertex -8.00219 -9.15094 0
    endloop
  endfacet
  facet normal 0 0 -1
    outer loop
      vertex -5.2525 -8.78906 0
      vertex -6.40187 -10.0444 0
      vertex -6.38875 -9.15094 0
    endloop
  endfacet
  facet normal 0 0 -1
    outer loop
      vertex -6.40656 -6.44344 0
      vertex -5.52531 -5.62125 0
      vertex -5.63594 -6.51 0
    endloop
  endfacet
  facet normal 0 0 -1
    outer loop
      vertex -5.63594 -6.51 0
      vertex -4.75469 -5.97562 0
      vertex -5.11469 -6.95719 0
    endloop
  endfacet
  facet normal 0 0 -1
    outer loop
      vertex -4.91688 -7.77094 0
      vertex -4.255 -6.70687 0
      vertex -5.2525 -8.78906 0
    endloop
  endfacet
  facet normal 0 0 -1
    outer loop
      vertex -5.11469 -6.95719 0
      vertex -4.255 -6.70687 0
      vertex -4.91688 -7.77094 0
    endloop
  endfacet
  facet normal 0 0 -1
    outer loop
      vertex -6.40187 -10.0444 0
      vertex -5.2525 -8.78906 0
      vertex -4.06562 -7.74 0
    endloop
  endfacet
  facet normal 0 0 -1
    outer loop
      vertex -6.40187 -10.0444 0
      vertex -4.06562 -7.74 0
      vertex -4.57187 -9.37594 0
    endloop
  endfacet
  facet normal -1 0 0
    outer loop
      vertex -8.82812 -13.125 0
      vertex -8.82812 -13.125 1
      vertex -8.82812 -5.54906 0
    endloop
  endfacet
  facet normal -1 0 0
    outer loop
      vertex -8.82812 -5.54906 0
      vertex -8.82812 -13.125 1
      vertex -8.82812 -5.54906 1
    endloop
  endfacet
  facet normal 0 0 1
    outer loop
      vertex -8.82812 -5.54906 1
      vertex -8.82812 -13.125 1
      vertex -8.00219 -13.125 1
    endloop
  endfacet
  facet normal 0 0 1
    outer loop
      vertex -8.00219 -9.15094 1
      vertex -8.82812 -5.54906 1
      vertex -8.00219 -10.0444 1
    endloop
  endfacet
  facet normal 0 0 1
    outer loop
      vertex -8.00219 -10.0444 1
      vertex -8.82812 -5.54906 1
      vertex -8.00219 -13.125 1
    endloop
  endfacet
  facet normal 0 0 1
    outer loop
      vertex -5.2525 -8.78906 1
      vertex -6.38875 -9.15094 1
      vertex -4.57187 -9.37594 1
    endloop
  endfacet
  facet normal 0 0 1
    outer loop
      vertex -4.75469 -5.97562 1
      vertex -8.82812 -5.54906 1
      vertex -4.255 -6.70687 1
    endloop
  endfacet
  facet normal 0 0 1
    outer loop
      vertex -5.52531 -5.62125 1
      vertex -8.82812 -5.54906 1
      vertex -4.75469 -5.97562 1
    endloop
  endfacet
  facet normal 0 0 1
    outer loop
      vertex -6.47406 -5.54906 1
      vertex -8.82812 -5.54906 1
      vertex -5.52531 -5.62125 1
    endloop
  endfacet
  facet normal 0 0 1
    outer loop
      vertex -6.40187 -10.0444 1
      vertex -8.00219 -9.15094 1
      vertex -8.00219 -10.0444 1
    endloop
  endfacet
  facet normal 0 0 1
    outer loop
      vertex -4.91688 -7.77094 1
      vertex -5.2525 -8.78906 1
      vertex -4.57187 -9.37594 1
    endloop
  endfacet
  facet normal 0 0 1
    outer loop
      vertex -5.63594 -6.51 1
      vertex -8.82812 -5.54906 1
      vertex -6.40656 -6.44344 1
    endloop
  endfacet
  facet normal 0 0 1
    outer loop
      vertex -5.11469 -6.95719 1
      vertex -4.91688 -7.77094 1
      vertex -4.06562 -7.74 1
    endloop
  endfacet
  facet normal 0 0 1
    outer loop
      vertex -4.255 -6.70687 1
      vertex -8.82812 -5.54906 1
      vertex -5.63594 -6.51 1
    endloop
  endfacet
  facet normal 0 0 1
    outer loop
      vertex -4.255 -6.70687 1
      vertex -5.11469 -6.95719 1
      vertex -4.06562 -7.74 1
    endloop
  endfacet
  facet normal 0 0 1
    outer loop
      vertex -4.06562 -7.74 1
      vertex -4.91688 -7.77094 1
      vertex -4.57187 -9.37594 1
    endloop
  endfacet
  facet normal 0 0 1
    outer loop
      vertex -5.63594 -6.51 1
      vertex -5.11469 -6.95719 1
      vertex -4.255 -6.70687 1
    endloop
  endfacet
  facet normal 0 0 1
    outer loop
      vertex -4.57187 -9.37594 1
      vertex -6.38875 -9.15094 1
      vertex -6.40187 -10.0444 1
    endloop
  endfacet
  facet normal 0 0 1
    outer loop
      vertex -8.00219 -9.15094 1
      vertex -8.00219 -6.44344 1
      vertex -8.82812 -5.54906 1
    endloop
  endfacet
  facet normal 0 0 1
    outer loop
      vertex -6.38875 -9.15094 1
      vertex -8.00219 -9.15094 1
      vertex -6.40187 -10.0444 1
    endloop
  endfacet
  facet normal 0 0 1
    outer loop
      vertex -8.00219 -6.44344 1
      vertex -6.40656 -6.44344 1
      vertex -8.82812 -5.54906 1
    endloop
  endfacet
  facet normal 1 0 0
    outer loop
      vertex -8.00219 -13.125 1
      vertex -8.00219 -13.125 0
      vertex -8.00219 -10.0444 0
    endloop
  endfacet
  facet normal 1 0 0
    outer loop
      vertex -8.00219 -10.0444 1
      vertex -8.00219 -13.125 1
      vertex -8.00219 -10.0444 0
    endloop
  endfacet
  facet normal 0 -1 0
    outer loop
      vertex -8.00219 -10.0444 1
      vertex -8.00219 -10.0444 0
      vertex -6.40187 -10.0444 0
    endloop
  endfacet
  facet normal 0 -1 0
    outer loop
      vertex -6.40187 -10.0444 1
      vertex -8.00219 -10.0444 1
      vertex -6.40187 -10.0444 0
    endloop
  endfacet
  facet normal 0.343095 -0.939301 0
    outer loop
      vertex -6.40187 -10.0444 1
      vertex -6.40187 -10.0444 0
      vertex -4.57187 -9.37594 0
    endloop
  endfacet
  facet normal 0.343095 -0.939301 0
    outer loop
      vertex -4.57187 -9.37594 1
      vertex -6.40187 -10.0444 1
      vertex -4.57187 -9.37594 0
    endloop
  endfacet
  facet normal 0.955304 -0.295624 0
    outer loop
      vertex -4.57187 -9.37594 1
      vertex -4.57187 -9.37594 0
      vertex -4.06562 -7.74 0
    endloop
  endfacet
  facet normal 0.955304 -0.295624 0
    outer loop
      vertex -4.06562 -7.74 1
      vertex -4.57187 -9.37594 1
      vertex -4.06562 -7.74 0
    endloop
  endfacet
  facet normal 0.983612 0.180299 0
    outer loop
      vertex -4.06562 -7.74 0
      vertex -4.255 -6.70687 0
      vertex -4.255 -6.70687 1
    endloop
  endfacet
  facet normal 0.983612 0.180299 0
    outer loop
      vertex -4.06562 -7.74 1
      vertex -4.06562 -7.74 0
      vertex -4.255 -6.70687 1
    endloop
  endfacet
  facet normal 0.825645 0.564191 0
    outer loop
      vertex -4.255 -6.70687 0
      vertex -4.75469 -5.97562 0
      vertex -4.75469 -5.97562 1
    endloop
  endfacet
  facet normal 0.825645 0.564191 0
    outer loop
      vertex -4.255 -6.70687 1
      vertex -4.255 -6.70687 0
      vertex -4.75469 -5.97562 1
    endloop
  endfacet
  facet normal 0.417796 0.908541 0
    outer loop
      vertex -5.52531 -5.62125 0
      vertex -5.52531 -5.62125 1
      vertex -4.75469 -5.97562 0
    endloop
  endfacet
  facet normal 0.417796 0.908541 0
    outer loop
      vertex -4.75469 -5.97562 0
      vertex -5.52531 -5.62125 1
      vertex -4.75469 -5.97562 1
    endloop
  endfacet
  facet normal 0.0758677 0.997118 0
    outer loop
      vertex -6.47406 -5.54906 0
      vertex -6.47406 -5.54906 1
      vertex -5.52531 -5.62125 0
    endloop
  endfacet
  facet normal 0.0758677 0.997118 0
    outer loop
      vertex -5.52531 -5.62125 0
      vertex -6.47406 -5.54906 1
      vertex -5.52531 -5.62125 1
    endloop
  endfacet
  facet normal 0 1 0
    outer loop
      vertex -8.82812 -5.54906 0
      vertex -8.82812 -5.54906 1
      vertex -6.47406 -5.54906 0
    endloop
  endfacet
  facet normal 0 1 0
    outer loop
      vertex -6.47406 -5.54906 0
      vertex -8.82812 -5.54906 1
      vertex -6.47406 -5.54906 1
    endloop
  endfacet
  facet normal 0 -1 0
    outer loop
      vertex -8.00219 -6.44344 1
      vertex -8.00219 -6.44344 0
      vertex -6.40656 -6.44344 0
    endloop
  endfacet
  facet normal 0 -1 0
    outer loop
      vertex -6.40656 -6.44344 1
      vertex -8.00219 -6.44344 1
      vertex -6.40656 -6.44344 0
    endloop
  endfacet
  facet normal 1 0 0
    outer loop
      vertex -8.00219 -9.15094 1
      vertex -8.00219 -9.15094 0
      vertex -8.00219 -6.44344 0
    endloop
  endfacet
  facet normal 1 0 0
    outer loop
      vertex -8.00219 -6.44344 1
      vertex -8.00219 -9.15094 1
      vertex -8.00219 -6.44344 0
    endloop
  endfacet
  facet normal -0.0860543 -0.99629 0
    outer loop
      vertex -6.40656 -6.44344 1
      vertex -6.40656 -6.44344 0
      vertex -5.63594 -6.51 0
    endloop
  endfacet
  facet normal -0.0860543 -0.99629 0
    outer loop
      vertex -5.63594 -6.51 1
      vertex -6.40656 -6.44344 1
      vertex -5.63594 -6.51 0
    endloop
  endfacet
  facet normal -0.651129 -0.758967 0
    outer loop
      vertex -5.63594 -6.51 1
      vertex -5.63594 -6.51 0
      vertex -5.11469 -6.95719 0
    endloop
  endfacet
  facet normal -0.651129 -0.758967 0
    outer loop
      vertex -5.11469 -6.95719 1
      vertex -5.63594 -6.51 1
      vertex -5.11469 -6.95719 0
    endloop
  endfacet
  facet normal -0.971702 -0.236209 0
    outer loop
      vertex -5.11469 -6.95719 0
      vertex -4.91688 -7.77094 0
      vertex -5.11469 -6.95719 1
    endloop
  endfacet
  facet normal -0.971702 -0.236209 0
    outer loop
      vertex -5.11469 -6.95719 1
      vertex -4.91688 -7.77094 0
      vertex -4.91688 -7.77094 1
    endloop
  endfacet
  facet normal -0.949727 0.313078 0
    outer loop
      vertex -5.2525 -8.78906 0
      vertex -5.2525 -8.78906 1
      vertex -4.91688 -7.77094 0
    endloop
  endfacet
  facet normal -0.949727 0.313078 0
    outer loop
      vertex -4.91688 -7.77094 0
      vertex -5.2525 -8.78906 1
      vertex -4.91688 -7.77094 1
    endloop
  endfacet
  facet normal -0.303463 0.952843 0
    outer loop
      vertex -6.38875 -9.15094 0
      vertex -6.38875 -9.15094 1
      vertex -5.2525 -8.78906 0
    endloop
  endfacet
  facet normal -0.303463 0.952843 0
    outer loop
      vertex -5.2525 -8.78906 0
      vertex -6.38875 -9.15094 1
      vertex -5.2525 -8.78906 1
    endloop
  endfacet
  facet normal 0 1 0
    outer loop
      vertex -8.00219 -9.15094 0
      vertex -8.00219 -9.15094 1
      vertex -6.38875 -9.15094 0
    endloop
  endfacet
  facet normal 0 1 0
    outer loop
      vertex -6.38875 -9.15094 0
      vertex -8.00219 -9.15094 1
      vertex -6.38875 -9.15094 1
    endloop
  endfacet
  facet normal 0 -1 0
    outer loop
      vertex -2.57719 -13.125 1
      vertex -2.57719 -13.125 0
      vertex 2.15625 -13.125 0
    endloop
  endfacet
  facet normal 0 -1 0
    outer loop
      vertex 2.15625 -13.125 1
      vertex -2.57719 -13.125 1
      vertex 2.15625 -13.125 0
    endloop
  endfacet
  facet normal 0 0 -1
    outer loop
      vertex 2.15625 -12.2306 0
      vertex 2.15625 -13.125 0
      vertex -1.575 -12.2306 0
    endloop
  endfacet
  facet normal 0 0 -1
    outer loop
      vertex -2.57719 -13.125 0
      vertex -2.57719 -5.54906 0
      vertex -1.575 -12.2306 0
    endloop
  endfacet
  facet normal 0 0 -1
    outer loop
      vertex -2.57719 -13.125 0
      vertex -1.575 -12.2306 0
      vertex 2.15625 -13.125 0
    endloop
  endfacet
  facet normal 0 0 -1
    outer loop
      vertex -1.575 -12.2306 0
      vertex -2.57719 -5.54906 0
      vertex -1.575 -5.54906 0
    endloop
  endfacet
  facet normal -1 0 0
    outer loop
      vertex -2.57719 -13.125 0
      vertex -2.57719 -13.125 1
      vertex -2.57719 -5.54906 0
    endloop
  endfacet
  facet normal -1 0 0
    outer loop
      vertex -2.57719 -5.54906 0
      vertex -2.57719 -13.125 1
      vertex -2.57719 -5.54906 1
    endloop
  endfacet
  facet normal 0 0 1
    outer loop
      vertex -1.575 -12.2306 1
      vertex -2.57719 -13.125 1
      vertex 2.15625 -13.125 1
    endloop
  endfacet
  facet normal 0 0 1
    outer loop
      vertex -1.575 -12.2306 1
      vertex -1.575 -5.54906 1
      vertex -2.57719 -5.54906 1
    endloop
  endfacet
  facet normal 0 0 1
    outer loop
      vertex -2.57719 -5.54906 1
      vertex -2.57719 -13.125 1
      vertex -1.575 -12.2306 1
    endloop
  endfacet
  facet normal 0 0 1
    outer loop
      vertex 2.15625 -12.2306 1
      vertex -1.575 -12.2306 1
      vertex 2.15625 -13.125 1
    endloop
  endfacet
  facet normal 1 0 0
    outer loop
      vertex 2.15625 -13.125 1
      vertex 2.15625 -13.125 0
      vertex 2.15625 -12.2306 0
    endloop
  endfacet
  facet normal 1 0 0
    outer loop
      vertex 2.15625 -12.2306 1
      vertex 2.15625 -13.125 1
      vertex 2.15625 -12.2306 0
    endloop
  endfacet
  facet normal 0 1 0
    outer loop
      vertex -1.575 -12.2306 0
      vertex -1.575 -12.2306 1
      vertex 2.15625 -12.2306 0
    endloop
  endfacet
  facet normal 0 1 0
    outer loop
      vertex 2.15625 -12.2306 0
      vertex -1.575 -12.2306 1
      vertex 2.15625 -12.2306 1
    endloop
  endfacet
  facet normal 1 0 0
    outer loop
      vertex -1.575 -12.2306 1
      vertex -1.575 -12.2306 0
      vertex -1.575 -5.54906 0
    endloop
  endfacet
  facet normal 1 0 0
    outer loop
      vertex -1.575 -5.54906 1
      vertex -1.575 -12.2306 1
      vertex -1.575 -5.54906 0
    endloop
  endfacet
  facet normal 0 1 0
    outer loop
      vertex -2.57719 -5.54906 0
      vertex -2.57719 -5.54906 1
      vertex -1.575 -5.54906 0
    endloop
  endfacet
  facet normal 0 1 0
    outer loop
      vertex -1.575 -5.54906 0
      vertex -2.57719 -5.54906 1
      vertex -1.575 -5.54906 1
    endloop
  endfacet
  facet normal 0 -1 0
    outer loop
      vertex 3.67188 -13.125 1
      vertex 3.67188 -13.125 0
      vertex 4.38719 -13.125 0
    endloop
  endfacet
  facet normal 0 -1 0
    outer loop
      vertex 4.38719 -13.125 1
      vertex 3.67188 -13.125 1
      vertex 4.38719 -13.125 0
    endloop
  endfacet
  facet normal 0 0 -1
    outer loop
      vertex 3.67188 -13.125 0
      vertex 5.62656 -5.54906 0
      vertex 4.38719 -13.125 0
    endloop
  endfacet
  facet normal 0 0 -1
    outer loop
      vertex 5.97344 -6.345 0
      vertex 5.62656 -5.54906 0
      vertex 6.35219 -5.54906 0
    endloop
  endfacet
  facet normal 0 0 -1
    outer loop
      vertex 7.6675 -13.125 0
      vertex 6.35219 -5.54906 0
      vertex 8.43437 -13.125 0
    endloop
  endfacet
  facet normal 0 0 -1
    outer loop
      vertex 7.07406 -10.83 0
      vertex 6.35219 -5.54906 0
      vertex 7.6675 -13.125 0
    endloop
  endfacet
  facet normal 0 0 -1
    outer loop
      vertex 6.86594 -10.0134 0
      vertex 6.35219 -5.54906 0
      vertex 7.07406 -10.83 0
    endloop
  endfacet
  facet normal 0 0 -1
    outer loop
      vertex 4.38719 -13.125 0
      vertex 5.62656 -5.54906 0
      vertex 4.94594 -10.83 0
    endloop
  endfacet
  facet normal 0 0 -1
    outer loop
      vertex 6.86594 -10.0134 0
      vertex 4.94594 -10.83 0
      vertex 5.14 -10.0134 0
    endloop
  endfacet
  facet normal 0 0 -1
    outer loop
      vertex 5.14 -10.0134 0
      vertex 5.62656 -5.54906 0
      vertex 5.69969 -7.79156 0
    endloop
  endfacet
  facet normal 0 0 -1
    outer loop
      vertex 4.94594 -10.83 0
      vertex 5.62656 -5.54906 0
      vertex 5.14 -10.0134 0
    endloop
  endfacet
  facet normal 0 0 -1
    outer loop
      vertex 6.33437 -7.91531 0
      vertex 6.35219 -5.54906 0
      vertex 6.86594 -10.0134 0
    endloop
  endfacet
  facet normal 0 0 -1
    outer loop
      vertex 5.69969 -7.79156 0
      vertex 5.62656 -5.54906 0
      vertex 5.97344 -6.345 0
    endloop
  endfacet
  facet normal 0 0 -1
    outer loop
      vertex 5.97344 -6.345 0
      vertex 6.35219 -5.54906 0
      vertex 6.33437 -7.91531 0
    endloop
  endfacet
  facet normal 0 0 -1
    outer loop
      vertex 4.94594 -10.83 0
      vertex 6.86594 -10.0134 0
      vertex 7.07406 -10.83 0
    endloop
  endfacet
  facet normal -0.968289 0.249831 0
    outer loop
      vertex 3.67188 -13.125 0
      vertex 3.67188 -13.125 1
      vertex 5.62656 -5.54906 0
    endloop
  endfacet
  facet normal -0.968289 0.249831 0
    outer loop
      vertex 5.62656 -5.54906 0
      vertex 3.67188 -13.125 1
      vertex 5.62656 -5.54906 1
    endloop
  endfacet
  facet normal 0 0 1
    outer loop
      vertex 5.62656 -5.54906 1
      vertex 3.67188 -13.125 1
      vertex 4.38719 -13.125 1
    endloop
  endfacet
  facet normal 0 0 1
    outer loop
      vertex 5.14 -10.0134 1
      vertex 5.62656 -5.54906 1
      vertex 4.94594 -10.83 1
    endloop
  endfacet
  facet normal 0 0 1
    outer loop
      vertex 4.94594 -10.83 1
      vertex 5.62656 -5.54906 1
      vertex 4.38719 -13.125 1
    endloop
  endfacet
  facet normal 0 0 1
    outer loop
      vertex 8.43437 -13.125 1
      vertex 7.07406 -10.83 1
      vertex 7.6675 -13.125 1
    endloop
  endfacet
  facet normal 0 0 1
    outer loop
      vertex 7.07406 -10.83 1
      vertex 5.14 -10.0134 1
      vertex 4.94594 -10.83 1
    endloop
  endfacet
  facet normal 0 0 1
    outer loop
      vertex 5.69969 -7.79156 1
      vertex 5.62656 -5.54906 1
      vertex 5.14 -10.0134 1
    endloop
  endfacet
  facet normal 0 0 1
    outer loop
      vertex 5.97344 -6.345 1
      vertex 6.33437 -7.91531 1
      vertex 8.43437 -13.125 1
    endloop
  endfacet
  facet normal 0 0 1
    outer loop
      vertex 6.35219 -5.54906 1
      vertex 5.97344 -6.345 1
      vertex 8.43437 -13.125 1
    endloop
  endfacet
  facet normal 0 0 1
    outer loop
      vertex 6.35219 -5.54906 1
      vertex 5.62656 -5.54906 1
      vertex 5.97344 -6.345 1
    endloop
  endfacet
  facet normal 0 0 1
    outer loop
      vertex 8.43437 -13.125 1
      vertex 6.33437 -7.91531 1
      vertex 7.07406 -10.83 1
    endloop
  endfacet
  facet normal 0 0 1
    outer loop
      vertex 6.33437 -7.91531 1
      vertex 6.86594 -10.0134 1
      vertex 7.07406 -10.83 1
    endloop
  endfacet
  facet normal 0 0 1
    outer loop
      vertex 6.86594 -10.0134 1
      vertex 5.14 -10.0134 1
      vertex 7.07406 -10.83 1
    endloop
  endfacet
  facet normal 0 0 1
    outer loop
      vertex 5.69969 -7.79156 1
      vertex 5.97344 -6.345 1
      vertex 5.62656 -5.54906 1
    endloop
  endfacet
  facet normal 0.971618 -0.236554 0
    outer loop
      vertex 4.38719 -13.125 1
      vertex 4.38719 -13.125 0
      vertex 4.94594 -10.83 0
    endloop
  endfacet
  facet normal 0.971618 -0.236554 0
    outer loop
      vertex 4.94594 -10.83 1
      vertex 4.38719 -13.125 1
      vertex 4.94594 -10.83 0
    endloop
  endfacet
  facet normal 0 -1 0
    outer loop
      vertex 4.94594 -10.83 1
      vertex 4.94594 -10.83 0
      vertex 7.07406 -10.83 0
    endloop
  endfacet
  facet normal 0 -1 0
    outer loop
      vertex 7.07406 -10.83 1
      vertex 4.94594 -10.83 1
      vertex 7.07406 -10.83 0
    endloop
  endfacet
  facet normal -0.968157 -0.250344 0
    outer loop
      vertex 7.07406 -10.83 0
      vertex 7.6675 -13.125 0
      vertex 7.07406 -10.83 1
    endloop
  endfacet
  facet normal -0.968157 -0.250344 0
    outer loop
      vertex 7.07406 -10.83 1
      vertex 7.6675 -13.125 0
      vertex 7.6675 -13.125 1
    endloop
  endfacet
  facet normal 0 -1 0
    outer loop
      vertex 7.6675 -13.125 1
      vertex 7.6675 -13.125 0
      vertex 8.43437 -13.125 0
    endloop
  endfacet
  facet normal 0 -1 0
    outer loop
      vertex 8.43437 -13.125 1
      vertex 7.6675 -13.125 1
      vertex 8.43437 -13.125 0
    endloop
  endfacet
  facet normal 0.964244 0.265015 0
    outer loop
      vertex 8.43437 -13.125 0
      vertex 6.35219 -5.54906 0
      vertex 6.35219 -5.54906 1
    endloop
  endfacet
  facet normal 0.964244 0.265015 0
    outer loop
      vertex 8.43437 -13.125 1
      vertex 8.43437 -13.125 0
      vertex 6.35219 -5.54906 1
    endloop
  endfacet
  facet normal 0 1 0
    outer loop
      vertex 5.62656 -5.54906 0
      vertex 5.62656 -5.54906 1
      vertex 6.35219 -5.54906 0
    endloop
  endfacet
  facet normal 0 1 0
    outer loop
      vertex 6.35219 -5.54906 0
      vertex 5.62656 -5.54906 1
      vertex 6.35219 -5.54906 1
    endloop
  endfacet
  facet normal 0.982561 -0.185942 0
    outer loop
      vertex 5.69969 -7.79156 1
      vertex 5.69969 -7.79156 0
      vertex 5.97344 -6.345 0
    endloop
  endfacet
  facet normal 0.982561 -0.185942 0
    outer loop
      vertex 5.97344 -6.345 1
      vertex 5.69969 -7.79156 1
      vertex 5.97344 -6.345 0
    endloop
  endfacet
  facet normal 0.969708 -0.244268 0
    outer loop
      vertex 5.14 -10.0134 1
      vertex 5.14 -10.0134 0
      vertex 5.69969 -7.79156 0
    endloop
  endfacet
  facet normal 0.969708 -0.244268 0
    outer loop
      vertex 5.69969 -7.79156 1
      vertex 5.14 -10.0134 1
      vertex 5.69969 -7.79156 0
    endloop
  endfacet
  facet normal -0.974587 -0.22401 0
    outer loop
      vertex 5.97344 -6.345 0
      vertex 6.33437 -7.91531 0
      vertex 5.97344 -6.345 1
    endloop
  endfacet
  facet normal -0.974587 -0.22401 0
    outer loop
      vertex 5.97344 -6.345 1
      vertex 6.33437 -7.91531 0
      vertex 6.33437 -7.91531 1
    endloop
  endfacet
  facet normal -0.969373 -0.245592 0
    outer loop
      vertex 6.33437 -7.91531 0
      vertex 6.86594 -10.0134 0
      vertex 6.33437 -7.91531 1
    endloop
  endfacet
  facet normal -0.969373 -0.245592 0
    outer loop
      vertex 6.33437 -7.91531 1
      vertex 6.86594 -10.0134 0
      vertex 6.86594 -10.0134 1
    endloop
  endfacet
  facet normal 0 1 0
    outer loop
      vertex 5.14 -10.0134 0
      vertex 5.14 -10.0134 1
      vertex 6.86594 -10.0134 0
    endloop
  endfacet
  facet normal 0 1 0
    outer loop
      vertex 6.86594 -10.0134 0
      vertex 5.14 -10.0134 1
      vertex 6.86594 -10.0134 1
    endloop
  endfacet
  facet normal 0 -1 0
    outer loop
      vertex -2.57812 5.95906 1
      vertex -2.57812 5.95906 0
      vertex 0.825 5.95906 0
    endloop
  endfacet
  facet normal 0 -1 0
    outer loop
      vertex 0.825 5.95906 1
      vertex -2.57812 5.95906 1
      vertex 0.825 5.95906 0
    endloop
  endfacet
  facet normal 0 0 -1
    outer loop
      vertex -2.57812 5.95906 0
      vertex -2.57812 6.8525 0
      vertex 0.825 5.95906 0
    endloop
  endfacet
  facet normal 0 0 -1
    outer loop
      vertex 0.825 5.95906 0
      vertex -2.57812 6.8525 0
      vertex 1.92 6.8525 0
    endloop
  endfacet
  facet normal 0 0 -1
    outer loop
      vertex 0.825 5.95906 0
      vertex 1.92 6.8525 0
      vertex 1.92 6.12969 0
    endloop
  endfacet
  facet normal 0 0 -1
    outer loop
      vertex 0.825 5.95906 0
      vertex 1.92 6.12969 0
      vertex 0.604687 4.08312 0
    endloop
  endfacet
  facet normal 0 0 -1
    outer loop
      vertex -1.28438 1.535 0
      vertex -0.729375 -0.625 0
      vertex -1.60594 -0.625 0
    endloop
  endfacet
  facet normal 0 0 -1
    outer loop
      vertex -0.400313 3.97719 0
      vertex -0.402188 1.45812 0
      vertex -1.28438 1.535 0
    endloop
  endfacet
  facet normal 0 0 -1
    outer loop
      vertex -0.402188 1.45812 0
      vertex -0.729375 -0.625 0
      vertex -1.28438 1.535 0
    endloop
  endfacet
  facet normal 0 0 -1
    outer loop
      vertex 0.604687 4.08312 0
      vertex -0.402188 1.45812 0
      vertex -0.400313 3.97719 0
    endloop
  endfacet
  facet normal 0 0 -1
    outer loop
      vertex 0.825 5.95906 0
      vertex 0.604687 4.08312 0
      vertex -0.400313 3.97719 0
    endloop
  endfacet
  facet normal -1 0 0
    outer loop
      vertex -2.57812 5.95906 0
      vertex -2.57812 5.95906 1
      vertex -2.57812 6.8525 0
    endloop
  endfacet
  facet normal -1 0 0
    outer loop
      vertex -2.57812 6.8525 0
      vertex -2.57812 5.95906 1
      vertex -2.57812 6.8525 1
    endloop
  endfacet
  facet normal 0 0 1
    outer loop
      vertex -0.400313 3.97719 1
      vertex -1.28438 1.535 1
      vertex 0.825 5.95906 1
    endloop
  endfacet
  facet normal 0 0 1
    outer loop
      vertex -2.57812 6.8525 1
      vertex -2.57812 5.95906 1
      vertex 0.825 5.95906 1
    endloop
  endfacet
  facet normal 0 0 1
    outer loop
      vertex 0.604687 4.08312 1
      vertex 1.92 6.12969 1
      vertex 0.825 5.95906 1
    endloop
  endfacet
  facet normal 0 0 1
    outer loop
      vertex 1.92 6.12969 1
      vertex -2.57812 6.8525 1
      vertex 0.825 5.95906 1
    endloop
  endfacet
  facet normal 0 0 1
    outer loop
      vertex -1.28438 1.535 1
      vertex -1.60594 -0.625 1
      vertex 0.825 5.95906 1
    endloop
  endfacet
  facet normal 0 0 1
    outer loop
      vertex -1.60594 -0.625 1
      vertex -0.402188 1.45812 1
      vertex 0.825 5.95906 1
    endloop
  endfacet
  facet normal 0 0 1
    outer loop
      vertex -1.60594 -0.625 1
      vertex -0.729375 -0.625 1
      vertex -0.402188 1.45812 1
    endloop
  endfacet
  facet normal 0 0 1
    outer loop
      vertex 1.92 6.12969 1
      vertex 1.92 6.8525 1
      vertex -2.57812 6.8525 1
    endloop
  endfacet
  facet normal 0 0 1
    outer loop
      vertex -0.402188 1.45812 1
      vertex 0.604687 4.08312 1
      vertex 0.825 5.95906 1
    endloop
  endfacet
  facet normal -0.850565 0.52587 0
    outer loop
      vertex -0.400313 3.97719 0
      vertex -0.400313 3.97719 1
      vertex 0.825 5.95906 0
    endloop
  endfacet
  facet normal -0.850565 0.52587 0
    outer loop
      vertex 0.825 5.95906 0
      vertex -0.400313 3.97719 1
      vertex 0.825 5.95906 1
    endloop
  endfacet
  facet normal -0.940288 0.340381 0
    outer loop
      vertex -1.28438 1.535 0
      vertex -1.28438 1.535 1
      vertex -0.400313 3.97719 0
    endloop
  endfacet
  facet normal -0.940288 0.340381 0
    outer loop
      vertex -0.400313 3.97719 0
      vertex -1.28438 1.535 1
      vertex -0.400313 3.97719 1
    endloop
  endfacet
  facet normal -0.989099 0.147249 0
    outer loop
      vertex -1.60594 -0.625 0
      vertex -1.60594 -0.625 1
      vertex -1.28438 1.535 0
    endloop
  endfacet
  facet normal -0.989099 0.147249 0
    outer loop
      vertex -1.28438 1.535 0
      vertex -1.60594 -0.625 1
      vertex -1.28438 1.535 1
    endloop
  endfacet
  facet normal 0 -1 0
    outer loop
      vertex -1.60594 -0.625 1
      vertex -1.60594 -0.625 0
      vertex -0.729375 -0.625 0
    endloop
  endfacet
  facet normal 0 -1 0
    outer loop
      vertex -0.729375 -0.625 1
      vertex -1.60594 -0.625 1
      vertex -0.729375 -0.625 0
    endloop
  endfacet
  facet normal 0.987889 -0.155163 0
    outer loop
      vertex -0.729375 -0.625 1
      vertex -0.729375 -0.625 0
      vertex -0.402188 1.45812 0
    endloop
  endfacet
  facet normal 0.987889 -0.155163 0
    outer loop
      vertex -0.402188 1.45812 1
      vertex -0.729375 -0.625 1
      vertex -0.402188 1.45812 0
    endloop
  endfacet
  facet normal 0.933672 -0.35813 0
    outer loop
      vertex -0.402188 1.45812 1
      vertex -0.402188 1.45812 0
      vertex 0.604687 4.08312 0
    endloop
  endfacet
  facet normal 0.933672 -0.35813 0
    outer loop
      vertex 0.604687 4.08312 1
      vertex -0.402188 1.45812 1
      vertex 0.604687 4.08312 0
    endloop
  endfacet
  facet normal 0.841241 -0.54066 0
    outer loop
      vertex 0.604687 4.08312 1
      vertex 0.604687 4.08312 0
      vertex 1.92 6.12969 0
    endloop
  endfacet
  facet normal 0.841241 -0.54066 0
    outer loop
      vertex 1.92 6.12969 1
      vertex 0.604687 4.08312 1
      vertex 1.92 6.12969 0
    endloop
  endfacet
  facet normal 1 0 0
    outer loop
      vertex 1.92 6.12969 1
      vertex 1.92 6.12969 0
      vertex 1.92 6.8525 0
    endloop
  endfacet
  facet normal 1 0 0
    outer loop
      vertex 1.92 6.8525 1
      vertex 1.92 6.12969 1
      vertex 1.92 6.8525 0
    endloop
  endfacet
  facet normal 0 1 0
    outer loop
      vertex -2.57812 6.8525 0
      vertex -2.57812 6.8525 1
      vertex 1.92 6.8525 0
    endloop
  endfacet
  facet normal 0 1 0
    outer loop
      vertex 1.92 6.8525 0
      vertex -2.57812 6.8525 1
      vertex 1.92 6.8525 1
    endloop
  endfacet
  facet normal 0 0 -1
    outer loop
      vertex -5.51006 6.67301 0
      vertex -1.87128 12.2828 0
      vertex -4.46503 6.02 0
    endloop
  endfacet
  facet normal 0 0 -1
    outer loop
      vertex -4.46503 6.02 0
      vertex -1.87128 12.2828 0
      vertex -0.886512 12.9625 0
    endloop
  endfacet
  facet normal 0 0 -1
    outer loop
      vertex -1.12621 11.1674 0
      vertex -0.886512 12.9625 0
      vertex 0.301342 13.1068 0
    endloop
  endfacet
  facet normal 0 0 -1
    outer loop
      vertex -0.278151 11.8437 0
      vertex 0.301342 13.1068 0
      vertex 1.42016 12.6825 0
    endloop
  endfacet
  facet normal 0 0 -1
    outer loop
      vertex 0.779362 11.6023 0
      vertex 1.42016 12.6825 0
      vertex 2.21364 11.7868 0
    endloop
  endfacet
  facet normal 0 0 -1
    outer loop
      vertex 5.51336 6.69974 0
      vertex 6.88265 7.55537 0
      vertex 5.95967 4.71473 0
    endloop
  endfacet
  facet normal 0 0 -1
    outer loop
      vertex 4.40759 6.00878 0
      vertex 5.95967 4.71473 0
      vertex 3.00191 5.13041 0
    endloop
  endfacet
  facet normal 0 0 -1
    outer loop
      vertex 5.51336 6.69974 0
      vertex 5.95967 4.71473 0
      vertex 4.40759 6.00878 0
    endloop
  endfacet
  facet normal 0 0 -1
    outer loop
      vertex -0.278151 11.8437 0
      vertex 1.42016 12.6825 0
      vertex 0.779362 11.6023 0
    endloop
  endfacet
  facet normal 0 0 -1
    outer loop
      vertex -1.12621 11.1674 0
      vertex 0.301342 13.1068 0
      vertex -0.278151 11.8437 0
    endloop
  endfacet
  facet normal 0 0 -1
    outer loop
      vertex -4.46503 6.02 0
      vertex -0.886512 12.9625 0
      vertex -1.12621 11.1674 0
    endloop
  endfacet
  facet normal 0 0 -1
    outer loop
      vertex 0.779362 11.6023 0
      vertex 2.21364 11.7868 0
      vertex 5.51336 6.69974 0
    endloop
  endfacet
  facet normal 0 0 -1
    outer loop
      vertex 0.779362 11.6023 0
      vertex 5.51336 6.69974 0
      vertex 4.40759 6.00878 0
    endloop
  endfacet
  facet normal -0.838961 0.544191 0
    outer loop
      vertex -5.51006 6.67301 0
      vertex -5.51006 6.67301 1
      vertex -1.87128 12.2828 0
    endloop
  endfacet
  facet normal -0.838961 0.544191 0
    outer loop
      vertex -1.87128 12.2828 0
      vertex -5.51006 6.67301 1
      vertex -1.87128 12.2828 1
    endloop
  endfacet
  facet normal -0.529919 -0.848048 0
    outer loop
      vertex -4.46503 6.02 0
      vertex -4.46503 6.02 1
      vertex -5.51006 6.67301 1
    endloop
  endfacet
  facet normal -0.529919 -0.848048 0
    outer loop
      vertex -5.51006 6.67301 0
      vertex -4.46503 6.02 0
      vertex -5.51006 6.67301 1
    endloop
  endfacet
  facet normal 0.838961 -0.544191 0
    outer loop
      vertex -1.12621 11.1674 0
      vertex -1.12621 11.1674 1
      vertex -4.46503 6.02 1
    endloop
  endfacet
  facet normal 0.838961 -0.544191 0
    outer loop
      vertex -4.46503 6.02 0
      vertex -1.12621 11.1674 0
      vertex -4.46503 6.02 1
    endloop
  endfacet
  facet normal 0.62349 -0.781831 0
    outer loop
      vertex -0.278151 11.8437 0
      vertex -0.278151 11.8437 1
      vertex -1.12621 11.1674 1
    endloop
  endfacet
  facet normal 0.62349 -0.781831 0
    outer loop
      vertex -1.12621 11.1674 0
      vertex -0.278151 11.8437 0
      vertex -1.12621 11.1674 1
    endloop
  endfacet
  facet normal -0.222521 -0.974928 0
    outer loop
      vertex 0.779362 11.6023 0
      vertex 0.779362 11.6023 1
      vertex -0.278151 11.8437 1
    endloop
  endfacet
  facet normal -0.222521 -0.974928 0
    outer loop
      vertex -0.278151 11.8437 0
      vertex 0.779362 11.6023 0
      vertex -0.278151 11.8437 1
    endloop
  endfacet
  facet normal -0.838961 -0.544191 0
    outer loop
      vertex 4.40759 6.00878 1
      vertex 0.779362 11.6023 1
      vertex 4.40759 6.00878 0
    endloop
  endfacet
  facet normal -0.838961 -0.544191 0
    outer loop
      vertex 4.40759 6.00878 0
      vertex 0.779362 11.6023 1
      vertex 0.779362 11.6023 0
    endloop
  endfacet
  facet normal -0.529919 0.848048 0
    outer loop
      vertex 3.00191 5.13041 0
      vertex 3.00191 5.13041 1
      vertex 4.40759 6.00878 0
    endloop
  endfacet
  facet normal -0.529919 0.848048 0
    outer loop
      vertex 4.40759 6.00878 0
      vertex 3.00191 5.13041 1
      vertex 4.40759 6.00878 1
    endloop
  endfacet
  facet normal -0.139173 -0.990268 0
    outer loop
      vertex 5.95967 4.71473 0
      vertex 5.95967 4.71473 1
      vertex 3.00191 5.13041 1
    endloop
  endfacet
  facet normal -0.139173 -0.990268 0
    outer loop
      vertex 3.00191 5.13041 0
      vertex 5.95967 4.71473 0
      vertex 3.00191 5.13041 1
    endloop
  endfacet
  facet normal 0.951057 -0.309017 0
    outer loop
      vertex 6.88265 7.55537 0
      vertex 6.88265 7.55537 1
      vertex 5.95967 4.71473 1
    endloop
  endfacet
  facet normal 0.951057 -0.309017 0
    outer loop
      vertex 5.95967 4.71473 0
      vertex 6.88265 7.55537 0
      vertex 5.95967 4.71473 1
    endloop
  endfacet
  facet normal -0.529919 0.848048 0
    outer loop
      vertex 5.51336 6.69974 0
      vertex 5.51336 6.69974 1
      vertex 6.88265 7.55537 0
    endloop
  endfacet
  facet normal -0.529919 0.848048 0
    outer loop
      vertex 6.88265 7.55537 0
      vertex 5.51336 6.69974 1
      vertex 6.88265 7.55537 1
    endloop
  endfacet
  facet normal 0.838961 0.544191 0
    outer loop
      vertex 5.51336 6.69974 0
      vertex 2.21364 11.7868 0
      vertex 2.21364 11.7868 1
    endloop
  endfacet
  facet normal 0.838961 0.544191 0
    outer loop
      vertex 5.51336 6.69974 1
      vertex 5.51336 6.69974 0
      vertex 2.21364 11.7868 1
    endloop
  endfacet
  facet normal 0.748511 0.663123 0
    outer loop
      vertex 2.21364 11.7868 0
      vertex 1.42016 12.6825 0
      vertex 1.42016 12.6825 1
    endloop
  endfacet
  facet normal 0.748511 0.663123 0
    outer loop
      vertex 2.21364 11.7868 1
      vertex 2.21364 11.7868 0
      vertex 1.42016 12.6825 1
    endloop
  endfacet
  facet normal 0.354605 0.935016 0
    outer loop
      vertex 0.301342 13.1068 0
      vertex 0.301342 13.1068 1
      vertex 1.42016 12.6825 0
    endloop
  endfacet
  facet normal 0.354605 0.935016 0
    outer loop
      vertex 1.42016 12.6825 0
      vertex 0.301342 13.1068 1
      vertex 1.42016 12.6825 1
    endloop
  endfacet
  facet normal -0.120536 0.992709 0
    outer loop
      vertex -0.886512 12.9625 0
      vertex -0.886512 12.9625 1
      vertex 0.301342 13.1068 0
    endloop
  endfacet
  facet normal -0.120536 0.992709 0
    outer loop
      vertex 0.301342 13.1068 0
      vertex -0.886512 12.9625 1
      vertex 0.301342 13.1068 1
    endloop
  endfacet
  facet normal -0.568065 0.822984 0
    outer loop
      vertex -1.87128 12.2828 0
      vertex -1.87128 12.2828 1
      vertex -0.886512 12.9625 0
    endloop
  endfacet
  facet normal -0.568065 0.822984 0
    outer loop
      vertex -0.886512 12.9625 0
      vertex -1.87128 12.2828 1
      vertex -0.886512 12.9625 1
    endloop
  endfacet
  facet normal 0 0 1
    outer loop
      vertex -1.87128 12.2828 1
      vertex -5.51006 6.67301 1
      vertex -4.46503 6.02 1
    endloop
  endfacet
  facet normal 0 0 1
    outer loop
      vertex -0.278151 11.8437 1
      vertex -1.87128 12.2828 1
      vertex -1.12621 11.1674 1
    endloop
  endfacet
  facet normal 0 0 1
    outer loop
      vertex -1.12621 11.1674 1
      vertex -1.87128 12.2828 1
      vertex -4.46503 6.02 1
    endloop
  endfacet
  facet normal 0 0 1
    outer loop
      vertex 0.779362 11.6023 1
      vertex -1.87128 12.2828 1
      vertex -0.278151 11.8437 1
    endloop
  endfacet
  facet normal 0 0 1
    outer loop
      vertex 2.21364 11.7868 1
      vertex -1.87128 12.2828 1
      vertex 0.779362 11.6023 1
    endloop
  endfacet
  facet normal 0 0 1
    outer loop
      vertex 5.95967 4.71473 1
      vertex 0.779362 11.6023 1
      vertex 4.40759 6.00878 1
    endloop
  endfacet
  facet normal 0 0 1
    outer loop
      vertex 5.95967 4.71473 1
      vertex 4.40759 6.00878 1
      vertex 3.00191 5.13041 1
    endloop
  endfacet
  facet normal 0 0 1
    outer loop
      vertex 5.51336 6.69974 1
      vertex 0.779362 11.6023 1
      vertex 5.95967 4.71473 1
    endloop
  endfacet
  facet normal 0 0 1
    outer loop
      vertex 6.88265 7.55537 1
      vertex 5.51336 6.69974 1
      vertex 5.95967 4.71473 1
    endloop
  endfacet
  facet normal 0 0 1
    outer loop
      vertex 1.42016 12.6825 1
      vertex -1.87128 12.2828 1
      vertex 2.21364 11.7868 1
    endloop
  endfacet
  facet normal 0 0 1
    outer loop
      vertex 0.301342 13.1068 1
      vertex -1.87128 12.2828 1
      vertex 1.42016 12.6825 1
    endloop
  endfacet
  facet normal 0 0 1
    outer loop
      vertex -0.886512 12.9625 1
      vertex -1.87128 12.2828 1
      vertex 0.301342 13.1068 1
    endloop
  endfacet
  facet normal 0 0 1
    outer loop
      vertex 5.51336 6.69974 1
      vertex 2.21364 11.7868 1
      vertex 0.779362 11.6023 1
    endloop
  endfacet
  facet normal -0.766044 -0.642788 0
    outer loop
      vertex 3.10423 -5.15625 1
      vertex 1.13759 -2.8125 1
      vertex 3.10423 -5.15625 0
    endloop
  endfacet
  facet normal -0.766044 -0.642788 0
    outer loop
      vertex 3.10423 -5.15625 0
      vertex 1.13759 -2.8125 1
      vertex 1.13759 -2.8125 0
    endloop
  endfacet
  facet normal 0 0 -1
    outer loop
      vertex 1.13759 -2.8125 0
      vertex 3.125 -0.443992 0
      vertex 3.10423 -5.15625 0
    endloop
  endfacet
  facet normal 0 0 -1
    outer loop
      vertex 3.10423 -5.15625 0
      vertex 3.125 -0.443992 0
      vertex 3.125 -2.15616 0
    endloop
  endfacet
  facet normal 0 0 -1
    outer loop
      vertex 3.125 -3.41927 0
      vertex 3.125 -2.15616 0
      vertex 7.22185 -2.15616 0
    endloop
  endfacet
  facet normal 0 0 -1
    outer loop
      vertex 8.27936 0.0397894 0
      vertex 6.9221 2.13224 0
      vertex 8.02787 2.8232 0
    endloop
  endfacet
  facet normal 0 0 -1
    outer loop
      vertex 8.27936 0.0397894 0
      vertex 8.02787 2.8232 0
      vertex 8.75 -0.9375 0
    endloop
  endfacet
  facet normal 0 0 -1
    outer loop
      vertex 8.75 -0.9375 0
      vertex 8.02787 2.8232 0
      vertex 9.71364 0.224308 0
    endloop
  endfacet
  facet normal 0 0 -1
    outer loop
      vertex 8.75 -0.9375 0
      vertex 9.71364 0.224308 0
      vertex 8.27936 -1.91479 0
    endloop
  endfacet
  facet normal 0 0 -1
    outer loop
      vertex 8.27936 -1.91479 0
      vertex 9.71364 0.224308 0
      vertex 10 -0.9375 0
    endloop
  endfacet
  facet normal 0 0 -1
    outer loop
      vertex 3.10423 -5.15625 0
      vertex 3.125 -2.15616 0
      vertex 3.125 -3.41927 0
    endloop
  endfacet
  facet normal 0 0 -1
    outer loop
      vertex 3.125 -5.15625 0
      vertex 3.10423 -5.15625 0
      vertex 3.125 -3.41927 0
    endloop
  endfacet
  facet normal 0 0 -1
    outer loop
      vertex 3.125 -3.41927 0
      vertex 7.22185 -2.15616 0
      vertex 8.27936 -1.91479 0
    endloop
  endfacet
  facet normal 0 0 -1
    outer loop
      vertex 8.27936 -1.91479 0
      vertex 10 -0.9375 0
      vertex 9.71364 -2.09931 0
    endloop
  endfacet
  facet normal 0 0 -1
    outer loop
      vertex 3.125 -3.41927 0
      vertex 8.27936 -1.91479 0
      vertex 9.71364 -2.09931 0
    endloop
  endfacet
  facet normal 0 0 -1
    outer loop
      vertex 3.125 -3.41927 0
      vertex 9.71364 -2.09931 0
      vertex 8.92016 -2.99496 0
    endloop
  endfacet
  facet normal 0 0 -1
    outer loop
      vertex 3.125 -3.41927 0
      vertex 8.92016 -2.99496 0
      vertex 7.80134 -3.41927 0
    endloop
  endfacet
  facet normal -0.766044 0.642788 0
    outer loop
      vertex 3.125 -0.443992 1
      vertex 3.125 -0.443992 0
      vertex 1.13759 -2.8125 1
    endloop
  endfacet
  facet normal -0.766044 0.642788 0
    outer loop
      vertex 1.13759 -2.8125 1
      vertex 3.125 -0.443992 0
      vertex 1.13759 -2.8125 0
    endloop
  endfacet
  facet normal 0 -1 0
    outer loop
      vertex 3.10423 -5.15625 1
      vertex 3.10423 -5.15625 0
      vertex 3.125 -5.15625 0
    endloop
  endfacet
  facet normal 0 -1 0
    outer loop
      vertex 3.125 -5.15625 1
      vertex 3.10423 -5.15625 1
      vertex 3.125 -5.15625 0
    endloop
  endfacet
  facet normal 0 0 1
    outer loop
      vertex 3.125 -0.443992 1
      vertex 1.13759 -2.8125 1
      vertex 3.10423 -5.15625 1
    endloop
  endfacet
  facet normal 0 0 1
    outer loop
      vertex 3.125 -2.15616 1
      vertex 3.125 -0.443992 1
      vertex 3.10423 -5.15625 1
    endloop
  endfacet
  facet normal 0 0 1
    outer loop
      vertex 3.125 -3.41927 1
      vertex 3.125 -2.15616 1
      vertex 3.10423 -5.15625 1
    endloop
  endfacet
  facet normal 0 0 1
    outer loop
      vertex 3.125 -5.15625 1
      vertex 3.125 -3.41927 1
      vertex 3.10423 -5.15625 1
    endloop
  endfacet
  facet normal 0 0 1
    outer loop
      vertex 8.27936 0.0397894 1
      vertex 8.75 -0.9375 1
      vertex 10 -0.9375 1
    endloop
  endfacet
  facet normal 0 0 1
    outer loop
      vertex 7.22185 -2.15616 1
      vertex 3.125 -2.15616 1
      vertex 7.80134 -3.41927 1
    endloop
  endfacet
  facet normal 0 0 1
    outer loop
      vertex 8.75 -0.9375 1
      vertex 8.27936 -1.91479 1
      vertex 9.71364 -2.09931 1
    endloop
  endfacet
  facet normal 0 0 1
    outer loop
      vertex 10 -0.9375 1
      vertex 9.71364 0.224308 1
      vertex 8.27936 0.0397894 1
    endloop
  endfacet
  facet normal 0 0 1
    outer loop
      vertex 7.22185 -2.15616 1
      vertex 7.80134 -3.41927 1
      vertex 8.92016 -2.99496 1
    endloop
  endfacet
  facet normal 0 0 1
    outer loop
      vertex 9.71364 -2.09931 1
      vertex 10 -0.9375 1
      vertex 8.75 -0.9375 1
    endloop
  endfacet
  facet normal 0 0 1
    outer loop
      vertex 8.92016 -2.99496 1
      vertex 9.71364 -2.09931 1
      vertex 8.27936 -1.91479 1
    endloop
  endfacet
  facet normal 0 0 1
    outer loop
      vertex 8.92016 -2.99496 1
      vertex 8.27936 -1.91479 1
      vertex 7.22185 -2.15616 1
    endloop
  endfacet
  facet normal 0 0 1
    outer loop
      vertex 7.80134 -3.41927 1
      vertex 3.125 -2.15616 1
      vertex 3.125 -3.41927 1
    endloop
  endfacet
  facet normal 0 0 1
    outer loop
      vertex 6.9221 2.13224 1
      vertex 9.71364 0.224308 1
      vertex 8.02787 2.8232 1
    endloop
  endfacet
  facet normal 0 0 1
    outer loop
      vertex 6.9221 2.13224 1
      vertex 8.27936 0.0397894 1
      vertex 9.71364 0.224308 1
    endloop
  endfacet
  facet normal 1 0 0
    outer loop
      vertex 3.125 -5.15625 1
      vertex 3.125 -5.15625 0
      vertex 3.125 -3.41927 0
    endloop
  endfacet
  facet normal 1 0 0
    outer loop
      vertex 3.125 -3.41927 1
      vertex 3.125 -5.15625 1
      vertex 3.125 -3.41927 0
    endloop
  endfacet
  facet normal 0 -1 0
    outer loop
      vertex 3.125 -3.41927 1
      vertex 3.125 -3.41927 0
      vertex 7.80134 -3.41927 0
    endloop
  endfacet
  facet normal 0 -1 0
    outer loop
      vertex 7.80134 -3.41927 1
      vertex 3.125 -3.41927 1
      vertex 7.80134 -3.41927 0
    endloop
  endfacet
  facet normal 0.354605 -0.935016 0
    outer loop
      vertex 7.80134 -3.41927 1
      vertex 7.80134 -3.41927 0
      vertex 8.92016 -2.99496 0
    endloop
  endfacet
  facet normal 0.354605 -0.935016 0
    outer loop
      vertex 8.92016 -2.99496 1
      vertex 7.80134 -3.41927 1
      vertex 8.92016 -2.99496 0
    endloop
  endfacet
  facet normal 0.748511 -0.663123 0
    outer loop
      vertex 8.92016 -2.99496 1
      vertex 8.92016 -2.99496 0
      vertex 9.71364 -2.09931 0
    endloop
  endfacet
  facet normal 0.748511 -0.663123 0
    outer loop
      vertex 9.71364 -2.09931 1
      vertex 8.92016 -2.99496 1
      vertex 9.71364 -2.09931 0
    endloop
  endfacet
  facet normal 0.970942 -0.239316 0
    outer loop
      vertex 9.71364 -2.09931 1
      vertex 9.71364 -2.09931 0
      vertex 10 -0.9375 0
    endloop
  endfacet
  facet normal 0.970942 -0.239316 0
    outer loop
      vertex 10 -0.9375 1
      vertex 9.71364 -2.09931 1
      vertex 10 -0.9375 0
    endloop
  endfacet
  facet normal 0.970942 0.239316 0
    outer loop
      vertex 10 -0.9375 0
      vertex 9.71364 0.224308 0
      vertex 9.71364 0.224308 1
    endloop
  endfacet
  facet normal 0.970942 0.239316 0
    outer loop
      vertex 10 -0.9375 1
      vertex 10 -0.9375 0
      vertex 9.71364 0.224308 1
    endloop
  endfacet
  facet normal 0.838961 0.544191 0
    outer loop
      vertex 9.71364 0.224308 0
      vertex 8.02787 2.8232 0
      vertex 8.02787 2.8232 1
    endloop
  endfacet
  facet normal 0.838961 0.544191 0
    outer loop
      vertex 9.71364 0.224308 1
      vertex 9.71364 0.224308 0
      vertex 8.02787 2.8232 1
    endloop
  endfacet
  facet normal -0.529919 0.848048 0
    outer loop
      vertex 8.02787 2.8232 1
      vertex 8.02787 2.8232 0
      vertex 6.9221 2.13224 1
    endloop
  endfacet
  facet normal -0.529919 0.848048 0
    outer loop
      vertex 6.9221 2.13224 1
      vertex 8.02787 2.8232 0
      vertex 6.9221 2.13224 0
    endloop
  endfacet
  facet normal -0.838961 -0.544191 0
    outer loop
      vertex 8.27936 0.0397894 1
      vertex 6.9221 2.13224 1
      vertex 8.27936 0.0397894 0
    endloop
  endfacet
  facet normal -0.838961 -0.544191 0
    outer loop
      vertex 8.27936 0.0397894 0
      vertex 6.9221 2.13224 1
      vertex 6.9221 2.13224 0
    endloop
  endfacet
  facet normal -0.900969 -0.433884 0
    outer loop
      vertex 8.75 -0.9375 1
      vertex 8.27936 0.0397894 1
      vertex 8.75 -0.9375 0
    endloop
  endfacet
  facet normal -0.900969 -0.433884 0
    outer loop
      vertex 8.75 -0.9375 0
      vertex 8.27936 0.0397894 1
      vertex 8.27936 0.0397894 0
    endloop
  endfacet
  facet normal -0.900969 0.433884 0
    outer loop
      vertex 8.75 -0.9375 1
      vertex 8.75 -0.9375 0
      vertex 8.27936 -1.91479 1
    endloop
  endfacet
  facet normal -0.900969 0.433884 0
    outer loop
      vertex 8.27936 -1.91479 1
      vertex 8.75 -0.9375 0
      vertex 8.27936 -1.91479 0
    endloop
  endfacet
  facet normal -0.222521 0.974928 0
    outer loop
      vertex 8.27936 -1.91479 1
      vertex 8.27936 -1.91479 0
      vertex 7.22185 -2.15616 1
    endloop
  endfacet
  facet normal -0.222521 0.974928 0
    outer loop
      vertex 7.22185 -2.15616 1
      vertex 8.27936 -1.91479 0
      vertex 7.22185 -2.15616 0
    endloop
  endfacet
  facet normal 0 1 0
    outer loop
      vertex 7.22185 -2.15616 1
      vertex 7.22185 -2.15616 0
      vertex 3.125 -2.15616 1
    endloop
  endfacet
  facet normal 0 1 0
    outer loop
      vertex 3.125 -2.15616 1
      vertex 7.22185 -2.15616 0
      vertex 3.125 -2.15616 0
    endloop
  endfacet
  facet normal 1 0 0
    outer loop
      vertex 3.125 -2.15616 1
      vertex 3.125 -2.15616 0
      vertex 3.125 -0.443992 0
    endloop
  endfacet
  facet normal 1 0 0
    outer loop
      vertex 3.125 -0.443992 1
      vertex 3.125 -2.15616 1
      vertex 3.125 -0.443992 0
    endloop
  endfacet
  facet normal -0.885456 -0.464723 0
    outer loop
      vertex -9.92735 -1.53579 0
      vertex -9.37128 -2.59531 0
      vertex -9.92735 -1.53579 1
    endloop
  endfacet
  facet normal -0.885456 -0.464723 0
    outer loop
      vertex -9.92735 -1.53579 1
      vertex -9.37128 -2.59531 0
      vertex -9.37128 -2.59531 1
    endloop
  endfacet
  facet normal 0 0 -1
    outer loop
      vertex -9.92735 -1.53579 0
      vertex -9.92735 -0.339211 0
      vertex -9.37128 -2.59531 0
    endloop
  endfacet
  facet normal 0 0 -1
    outer loop
      vertex -9.37128 -2.59531 0
      vertex -9.92735 -0.339211 0
      vertex -9.37128 0.720307 0
    endloop
  endfacet
  facet normal 0 0 -1
    outer loop
      vertex -9.37128 -2.59531 0
      vertex -9.37128 0.720307 0
      vertex -8.00657 2.82424 0
    endloop
  endfacet
  facet normal 0 0 -1
    outer loop
      vertex -8.00657 2.82424 0
      vertex -9.29086 3.62675 0
      vertex -6.38408 4.03527 0
    endloop
  endfacet
  facet normal 0 0 -1
    outer loop
      vertex -8.62621 -1.47985 0
      vertex -9.37128 -2.59531 0
      vertex -8.62621 -0.395146 0
    endloop
  endfacet
  facet normal 0 0 -1
    outer loop
      vertex -6.96154 2.17123 0
      vertex -6.38408 4.03527 0
      vertex -5.47701 1.24359 0
    endloop
  endfacet
  facet normal 0 0 -1
    outer loop
      vertex -8.00657 2.82424 0
      vertex -6.38408 4.03527 0
      vertex -8.62621 -0.395146 0
    endloop
  endfacet
  facet normal 0 0 -1
    outer loop
      vertex -8.00657 2.82424 0
      vertex -8.62621 -0.395146 0
      vertex -9.37128 -2.59531 0
    endloop
  endfacet
  facet normal 0 0 -1
    outer loop
      vertex -7.77815 -2.15616 0
      vertex -9.37128 -2.59531 0
      vertex -8.62621 -1.47985 0
    endloop
  endfacet
  facet normal 0 0 -1
    outer loop
      vertex -9.37128 -2.59531 0
      vertex -7.77815 -2.15616 0
      vertex -1.5625 -2.15616 0
    endloop
  endfacet
  facet normal 0 0 -1
    outer loop
      vertex -9.37128 -2.59531 0
      vertex -1.5625 -2.15616 0
      vertex -1.5625 -3.41927 0
    endloop
  endfacet
  facet normal 0 0 -1
    outer loop
      vertex -9.37128 -2.59531 0
      vertex -1.5625 -3.41927 0
      vertex -7.19866 -3.41927 0
    endloop
  endfacet
  facet normal 0 0 -1
    outer loop
      vertex -9.37128 -2.59531 0
      vertex -7.19866 -3.41927 0
      vertex -8.38651 -3.27504 0
    endloop
  endfacet
  facet normal 0 0 -1
    outer loop
      vertex -8.62621 -0.395146 0
      vertex -6.38408 4.03527 0
      vertex -6.96154 2.17123 0
    endloop
  endfacet
  facet normal -1 0 0
    outer loop
      vertex -9.92735 -1.53579 0
      vertex -9.92735 -1.53579 1
      vertex -9.92735 -0.339211 0
    endloop
  endfacet
  facet normal -1 0 0
    outer loop
      vertex -9.92735 -0.339211 0
      vertex -9.92735 -1.53579 1
      vertex -9.92735 -0.339211 1
    endloop
  endfacet
  facet normal 0 0 1
    outer loop
      vertex -9.92735 -0.339211 1
      vertex -9.92735 -1.53579 1
      vertex -9.37128 -2.59531 1
    endloop
  endfacet
  facet normal 0 0 1
    outer loop
      vertex -7.19866 -3.41927 1
      vertex -9.92735 -0.339211 1
      vertex -8.38651 -3.27504 1
    endloop
  endfacet
  facet normal 0 0 1
    outer loop
      vertex -8.38651 -3.27504 1
      vertex -9.92735 -0.339211 1
      vertex -9.37128 -2.59531 1
    endloop
  endfacet
  facet normal 0 0 1
    outer loop
      vertex -8.62621 -1.47985 1
      vertex -9.92735 -0.339211 1
      vertex -7.19866 -3.41927 1
    endloop
  endfacet
  facet normal 0 0 1
    outer loop
      vertex -1.5625 -3.41927 1
      vertex -7.77815 -2.15616 1
      vertex -7.19866 -3.41927 1
    endloop
  endfacet
  facet normal 0 0 1
    outer loop
      vertex -7.77815 -2.15616 1
      vertex -8.62621 -1.47985 1
      vertex -7.19866 -3.41927 1
    endloop
  endfacet
  facet normal 0 0 1
    outer loop
      vertex -6.96154 2.17123 1
      vertex -9.92735 -0.339211 1
      vertex -8.62621 -0.395146 1
    endloop
  endfacet
  facet normal 0 0 1
    outer loop
      vertex -6.38408 4.03527 1
      vertex -9.92735 -0.339211 1
      vertex -6.96154 2.17123 1
    endloop
  endfacet
  facet normal 0 0 1
    outer loop
      vertex -6.38408 4.03527 1
      vertex -6.96154 2.17123 1
      vertex -5.47701 1.24359 1
    endloop
  endfacet
  facet normal 0 0 1
    outer loop
      vertex -8.00657 2.82424 1
      vertex -9.92735 -0.339211 1
      vertex -6.38408 4.03527 1
    endloop
  endfacet
  facet normal 0 0 1
    outer loop
      vertex -9.29086 3.62675 1
      vertex -8.00657 2.82424 1
      vertex -6.38408 4.03527 1
    endloop
  endfacet
  facet normal 0 0 1
    outer loop
      vertex -9.37128 0.720307 1
      vertex -9.92735 -0.339211 1
      vertex -8.00657 2.82424 1
    endloop
  endfacet
  facet normal 0 0 1
    outer loop
      vertex -1.5625 -2.15616 1
      vertex -7.77815 -2.15616 1
      vertex -1.5625 -3.41927 1
    endloop
  endfacet
  facet normal 0 0 1
    outer loop
      vertex -8.62621 -1.47985 1
      vertex -8.62621 -0.395146 1
      vertex -9.92735 -0.339211 1
    endloop
  endfacet
  facet normal -0.568065 -0.822984 0
    outer loop
      vertex -9.37128 -2.59531 1
      vertex -9.37128 -2.59531 0
      vertex -8.38651 -3.27504 0
    endloop
  endfacet
  facet normal -0.568065 -0.822984 0
    outer loop
      vertex -8.38651 -3.27504 1
      vertex -9.37128 -2.59531 1
      vertex -8.38651 -3.27504 0
    endloop
  endfacet
  facet normal -0.120536 -0.992709 0
    outer loop
      vertex -8.38651 -3.27504 1
      vertex -8.38651 -3.27504 0
      vertex -7.19866 -3.41927 0
    endloop
  endfacet
  facet normal -0.120536 -0.992709 0
    outer loop
      vertex -7.19866 -3.41927 1
      vertex -8.38651 -3.27504 1
      vertex -7.19866 -3.41927 0
    endloop
  endfacet
  facet normal 0 -1 0
    outer loop
      vertex -7.19866 -3.41927 1
      vertex -7.19866 -3.41927 0
      vertex -1.5625 -3.41927 0
    endloop
  endfacet
  facet normal 0 -1 0
    outer loop
      vertex -1.5625 -3.41927 1
      vertex -7.19866 -3.41927 1
      vertex -1.5625 -3.41927 0
    endloop
  endfacet
  facet normal 1 0 0
    outer loop
      vertex -1.5625 -2.15616 0
      vertex -1.5625 -2.15616 1
      vertex -1.5625 -3.41927 1
    endloop
  endfacet
  facet normal 1 0 0
    outer loop
      vertex -1.5625 -3.41927 0
      vertex -1.5625 -2.15616 0
      vertex -1.5625 -3.41927 1
    endloop
  endfacet
  facet normal 0 1 0
    outer loop
      vertex -1.5625 -2.15616 1
      vertex -1.5625 -2.15616 0
      vertex -7.77815 -2.15616 1
    endloop
  endfacet
  facet normal 0 1 0
    outer loop
      vertex -7.77815 -2.15616 1
      vertex -1.5625 -2.15616 0
      vertex -7.77815 -2.15616 0
    endloop
  endfacet
  facet normal 0.62349 0.781831 0
    outer loop
      vertex -7.77815 -2.15616 1
      vertex -7.77815 -2.15616 0
      vertex -8.62621 -1.47985 1
    endloop
  endfacet
  facet normal 0.62349 0.781831 0
    outer loop
      vertex -8.62621 -1.47985 1
      vertex -7.77815 -2.15616 0
      vertex -8.62621 -1.47985 0
    endloop
  endfacet
  facet normal 1 0 0
    outer loop
      vertex -8.62621 -0.395146 0
      vertex -8.62621 -0.395146 1
      vertex -8.62621 -1.47985 1
    endloop
  endfacet
  facet normal 1 0 0
    outer loop
      vertex -8.62621 -1.47985 0
      vertex -8.62621 -0.395146 0
      vertex -8.62621 -1.47985 1
    endloop
  endfacet
  facet normal 0.838961 -0.544191 0
    outer loop
      vertex -6.96154 2.17123 0
      vertex -6.96154 2.17123 1
      vertex -8.62621 -0.395146 1
    endloop
  endfacet
  facet normal 0.838961 -0.544191 0
    outer loop
      vertex -8.62621 -0.395146 0
      vertex -6.96154 2.17123 0
      vertex -8.62621 -0.395146 1
    endloop
  endfacet
  facet normal -0.529919 -0.848048 0
    outer loop
      vertex -6.96154 2.17123 1
      vertex -6.96154 2.17123 0
      vertex -5.47701 1.24359 0
    endloop
  endfacet
  facet normal -0.529919 -0.848048 0
    outer loop
      vertex -5.47701 1.24359 1
      vertex -6.96154 2.17123 1
      vertex -5.47701 1.24359 0
    endloop
  endfacet
  facet normal 0.951057 0.309017 0
    outer loop
      vertex -6.38408 4.03527 1
      vertex -5.47701 1.24359 1
      vertex -5.47701 1.24359 0
    endloop
  endfacet
  facet normal 0.951057 0.309017 0
    outer loop
      vertex -6.38408 4.03527 0
      vertex -6.38408 4.03527 1
      vertex -5.47701 1.24359 0
    endloop
  endfacet
  facet normal -0.139173 0.990268 0
    outer loop
      vertex -6.38408 4.03527 1
      vertex -6.38408 4.03527 0
      vertex -9.29086 3.62675 1
    endloop
  endfacet
  facet normal -0.139173 0.990268 0
    outer loop
      vertex -9.29086 3.62675 1
      vertex -6.38408 4.03527 0
      vertex -9.29086 3.62675 0
    endloop
  endfacet
  facet normal -0.529919 -0.848048 0
    outer loop
      vertex -9.29086 3.62675 1
      vertex -9.29086 3.62675 0
      vertex -8.00657 2.82424 0
    endloop
  endfacet
  facet normal -0.529919 -0.848048 0
    outer loop
      vertex -8.00657 2.82424 1
      vertex -9.29086 3.62675 1
      vertex -8.00657 2.82424 0
    endloop
  endfacet
  facet normal -0.838961 0.544191 0
    outer loop
      vertex -9.37128 0.720307 0
      vertex -9.37128 0.720307 1
      vertex -8.00657 2.82424 0
    endloop
  endfacet
  facet normal -0.838961 0.544191 0
    outer loop
      vertex -8.00657 2.82424 0
      vertex -9.37128 0.720307 1
      vertex -8.00657 2.82424 1
    endloop
  endfacet
  facet normal -0.885456 0.464723 0
    outer loop
      vertex -9.92735 -0.339211 0
      vertex -9.92735 -0.339211 1
      vertex -9.37128 0.720307 0
    endloop
  endfacet
  facet normal -0.885456 0.464723 0
    outer loop
      vertex -9.37128 0.720307 0
      vertex -9.92735 -0.339211 1
      vertex -9.37128 0.720307 1
    endloop
  endfacet
endsolid OpenSCAD_Model
